<svg id="logo" xmlns="http://www.w3.org/2000/svg" viewBox="0 0 859.8 859.8"><defs><style>.cls-1{fill:#5cbcab;}.cls-2{fill:#fff;}</style></defs><title>datascouts_logo</title><g id="bg"><path id="path3566" class="cls-1" d="M879.9,449.29c0,237.43-192.47,429.9-429.9,429.9S20.1,686.71,20.1,449.29,212.57,19.39,450,19.39,879.9,211.86,879.9,449.29Z" transform="translate(-20.1 -19.39)"/><path id="path3445" class="cls-2" d="M450.78,801.56a8.57,8.57,0,1,1,8.79,8.37h-.23a8.58,8.58,0,0,1-8.56-8.37M422.6,809a8.54,8.54,0,1,1,.65,0l-.65,0m64.25-9.36a8.57,8.57,0,1,1,9.59,7.43,9.3,9.3,0,0,1-1.1.07,8.58,8.58,0,0,1-8.49-7.5m-101,4.66a8.59,8.59,0,1,1,1.54.13,9,9,0,0,1-1.54-.13m136.64-10.26a8.57,8.57,0,1,1,10.31,6.4h0a9.06,9.06,0,0,1-2,.23,8.59,8.59,0,0,1-8.34-6.63m-172.67,1.79a8.55,8.55,0,1,1,2.39.34,8.33,8.33,0,0,1-2.39-.34m207.59-11a8.57,8.57,0,1,1,8.1,5.77,8.6,8.6,0,0,1-8.1-5.77m-242.55-1.12h0a8.56,8.56,0,1,1,3.22.63,8.5,8.5,0,0,1-3.22-.63M591.24,772A8.55,8.55,0,1,1,599,776.9a8.61,8.61,0,0,1-7.77-4.94M281.4,768a8.57,8.57,0,1,1,4,1,8.6,8.6,0,0,1-4-1m342.11-12.27a8.58,8.58,0,1,1,11.77,2.93,8.56,8.56,0,0,1-11.77-2.93m-373.84-6.84a8.57,8.57,0,1,1,4.78,1.46,8.61,8.61,0,0,1-4.78-1.46m404.28-12.68a8.56,8.56,0,1,1,6.85,3.43,8.6,8.6,0,0,1-6.85-3.43m-433.87-9.59a8.55,8.55,0,1,1,5.48,2,8.48,8.48,0,0,1-5.48-2m462.15-12.95a8.58,8.58,0,1,1,12.11.47h0a8.57,8.57,0,0,1-12.12-.47M192.92,701.4A8.56,8.56,0,1,1,199,704a8.6,8.6,0,0,1-6.13-2.59m515.14-13.1a8.57,8.57,0,1,1,5.66,2.14,8.61,8.61,0,0,1-5.66-2.14m-539.6-14.73h0a8.54,8.54,0,1,1,6.71,3.25,8.6,8.6,0,0,1-6.71-3.25m562.72-13.11a8.57,8.57,0,1,1,5,1.59,8.5,8.5,0,0,1-5-1.59M147,643.38A8.58,8.58,0,1,1,158.81,646,8.55,8.55,0,0,1,147,643.38m604.35-13a8.56,8.56,0,1,1,4.22,1.12,8.61,8.61,0,0,1-4.22-1.12M128.69,611.13a8.56,8.56,0,1,1,7.67,4.74,8.62,8.62,0,0,1-7.67-4.74m639.6-12.72a8.56,8.56,0,1,1,3.43.72,8.61,8.61,0,0,1-3.43-.72M113.83,577.16a8.57,8.57,0,1,1,11,5,8.56,8.56,0,0,1-11-5m668-12.32a8.59,8.59,0,0,1-5.56-10.8h0a8.57,8.57,0,1,1,8.16,11.21,8.41,8.41,0,0,1-2.6-.42m-679.32-23A8.58,8.58,0,1,1,113,547.93a8.58,8.58,0,0,1-10.48-6.11M791.9,530a8.59,8.59,0,0,1-6.65-10.16h0A8.56,8.56,0,1,1,791.9,530M95,505.51a8.54,8.54,0,1,1,8.46,7.27A8.59,8.59,0,0,1,95,505.51m703.3-11.13a8.48,8.48,0,1,1,.88.05,7.34,7.34,0,0,1-.88-.05M91.17,468.62a8.57,8.57,0,1,1,9,8.14h-.46a8.59,8.59,0,0,1-8.55-8.15m701.24-18.94c0-.12,0-.25,0-.37s0-.26,0-.4a8.57,8.57,0,1,1,17.13,0c0,.13,0,.26,0,.39s0,.27,0,.41h0a8.57,8.57,0,1,1-17.14,0M99.27,440.55a8.6,8.6,0,1,1,.43,0h-.43m691.27-26.92h0a8.57,8.57,0,1,1,9.41,7.65,7.61,7.61,0,0,1-.89,0,8.58,8.58,0,0,1-8.52-7.71M102,404.44a8.59,8.59,0,1,1,1.31.1,9.43,9.43,0,0,1-1.31-.1m683.06-25.69h0a8.56,8.56,0,1,1,8.38,6.83,8.6,8.6,0,0,1-8.38-6.83m-676.61-9.95a8.55,8.55,0,1,1,2.17.28,8.33,8.33,0,0,1-2.17-.28M776.07,344.6a8.57,8.57,0,1,1,10.78,5.55,8.56,8.56,0,0,1-10.78-5.55M118.56,334a8.57,8.57,0,1,1,3,.55,8.6,8.6,0,0,1-3-.55m645-22.43a8.54,8.54,0,1,1,7.84,5.14,8.6,8.6,0,0,1-7.84-5.14M132.18,300.46a8.56,8.56,0,1,1,3.83.91,8.6,8.6,0,0,1-3.83-.91M747.74,280a8.57,8.57,0,1,1,11.69,3.21A8.56,8.56,0,0,1,747.74,280M149.2,268.49a8.61,8.61,0,0,1-2.64-11.86h0a8.59,8.59,0,1,1,2.63,11.86m579.55-18.21a8.54,8.54,0,1,1,7,3.6,8.61,8.61,0,0,1-7-3.6M169.39,238.46a8.56,8.56,0,1,1,5.31,1.85,8.62,8.62,0,0,1-5.31-1.85M706.8,222.64a8.58,8.58,0,1,1,12.1.76,8.57,8.57,0,0,1-12.1-.76m-514.25-12a8.58,8.58,0,1,1,12.12-.18,8.56,8.56,0,0,1-12.12.18m489.6-13.27a8.56,8.56,0,1,1,5.81,2.28,8.62,8.62,0,0,1-5.81-2.28m-463.74-12a8.58,8.58,0,1,1,12.08,1.06,8.57,8.57,0,0,1-12.08-1.06m436.64-10.59h0A8.58,8.58,0,0,1,665.34,161h0a8.59,8.59,0,1,1-10.28,13.76M246.73,162.87a8.55,8.55,0,1,1,7.12,3.78,8.62,8.62,0,0,1-7.12-3.78m379.08-7.78h0a8.55,8.55,0,1,1,4.4,1.22,8.52,8.52,0,0,1-4.4-1.22M277.2,143.41a8.58,8.58,0,1,1,11.6,3.52,8.44,8.44,0,0,1-4,1,8.56,8.56,0,0,1-7.56-4.54m317.49-4.89a8.55,8.55,0,1,1,3.62.81,8.62,8.62,0,0,1-3.62-.81m-285.2-11.33a8.57,8.57,0,1,1,11.18,4.71h0a8.47,8.47,0,0,1-3.25.64,8.56,8.56,0,0,1-7.93-5.34M562,125.26a8.57,8.57,0,1,1,2.8.47,8.6,8.6,0,0,1-2.8-.47M343.29,114.4a8.58,8.58,0,1,1,10.63,5.84,8.83,8.83,0,0,1-2.41.34,8.57,8.57,0,0,1-8.22-6.18m184.9,1.06a8.54,8.54,0,1,1,1.95.23,8.72,8.72,0,0,1-1.95-.23m-150-10.27a8.56,8.56,0,1,1,8.42,7.05,8.59,8.59,0,0,1-8.42-7.05m115.28,4a8.55,8.55,0,1,1,1.09.07,7.68,7.68,0,0,1-1.09-.07m-79.58-9.58a8.57,8.57,0,1,1,9.21,7.9l-.68,0a8.58,8.58,0,0,1-8.54-7.93m44.45,6.95a8.67,8.67,0,1,1,.2,0Z" transform="translate(-20.1 -19.39)"/></g><g id="logo-2" data-name="logo"><path class="cls-2" d="M659.49,434.75l.15.26a.12.12,0,0,1,0-.05Z" transform="translate(-20.1 -19.39)"/><path class="cls-2" d="M659.49,434.75l.15.26a.12.12,0,0,1,0-.05Z" transform="translate(-20.1 -19.39)"/><path class="cls-2" d="M513.14,284.55h0Z" transform="translate(-20.1 -19.39)"/><polygon class="cls-2" points="493.05 265.16 493.05 265.17 493.04 265.16 493.05 265.16"/><path class="cls-2" d="M659.69,435a.12.12,0,0,0,0,.05l-.15-.26Z" transform="translate(-20.1 -19.39)"/><path class="cls-2" d="M659.49,434.75l.15.26a.12.12,0,0,1,0-.05Z" transform="translate(-20.1 -19.39)"/><path class="cls-2" d="M673.65,419.27a29.82,29.82,0,0,0-10.47,1.88l-106-183.55h-212a30,30,0,1,0-48.73,28.14l-106,183.55,106,183.54A30,30,0,1,0,345.25,661h212l106-183.55a30,30,0,1,0,10.47-58.15Zm-14,15.74-.15-.26.2.21A.12.12,0,0,0,659.64,435Zm-5.12-8.86c-.63.52-1.24,1.07-1.82,1.64L534.09,306a30,30,0,0,0,3.35-39.11l15.84-16.13ZM345.25,247.6H542.41l-12.1,12.33a30,30,0,0,0-46.53,18.38L345,248.84C345.12,248.43,345.2,248,345.25,247.6Zm179,327.7a29.74,29.74,0,0,0-7.45,4.66L290.31,448.6,495.4,308.76a29.63,29.63,0,0,0,9.82,4.74ZM513.14,284.55h0Zm-193.6-12.19a30,30,0,0,0,21.73-14.1l142.12,30.19a29.67,29.67,0,0,0,5,13L283.52,441.13Zm-14.35-1.62A28.28,28.28,0,0,0,309.4,272L272.63,444.29H205Zm0,357.09L205,454.29h67.64L309.4,626.61A28.29,28.29,0,0,0,305.19,627.83Zm14.35-1.62L283.22,456l227.1,131.7a29.87,29.87,0,0,0-3.9,12l-165.59,39.9A30,30,0,0,0,319.54,626.21ZM345.25,651a19.19,19.19,0,0,0-.41-2l162.27-39.1a30,30,0,0,0,29.18,23,28.88,28.88,0,0,0,4.77-.39L547.35,651Zm191-78.18c-.73,0-1.46,0-2.18.09l-18.78-258.4a29.3,29.3,0,0,0,10.41-2.68l121,124.2a30,30,0,0,0,.59,27.72L547.71,575A29.75,29.75,0,0,0,536.29,572.79Zm19.22,71.11-5-14.66a30,30,0,0,0,5.77-48.8l97.33-108.78.88.77Z" transform="translate(-20.1 -19.39)"/><polygon class="cls-2" points="493.05 265.16 493.05 265.17 493.04 265.16 493.05 265.16"/></g></svg>