<?xml version="1.0" encoding="utf-8"?>
<!-- Generator: Adobe Illustrator 21.1.0, SVG Export Plug-In . SVG Version: 6.00 Build 0)  -->
<svg version="1.1" id="Layer_1" xmlns="http://www.w3.org/2000/svg" xmlns:xlink="http://www.w3.org/1999/xlink" x="0px" y="0px"
	 viewBox="0 0 1028 85" style="enable-background:new 0 0 1028 85;" xml:space="preserve">
<style type="text/css">
	.st0{fill-rule:evenodd;clip-rule:evenodd;fill:#FFFFFF;}
	.st1{fill-rule:evenodd;clip-rule:evenodd;fill:#00EABC;}
</style>
<g>
	<path class="st0" d="M984.5,61.1h-10.6c0,12.3,11.4,23.9,27.6,23.9c15.5,0,25-9.2,26.3-20.5c1.6-12.6-6.3-20.9-21.1-24.6l-10.3-2.5
		c-10-2.4-11.2-7.5-11.2-11c0-7.2,7.1-11.9,14.8-11.9c8.6,0,14.9,5,14.9,12.9h10.6c0-14.2-11-23.1-25.4-23.1
		c-13.4,0-25.5,8.9-25.5,22.1c0,6.8,2.5,16.3,19.2,20.5l10.2,2.5c7.1,1.6,14.1,5.6,13.4,14c-0.9,5.9-5.8,11.5-15.9,11.5
		C991.5,75.1,984.6,68,984.5,61.1z"/>
	<polygon class="st0" points="870,5.2 870,15.3 894,15.3 894,83.8 904.7,83.8 904.7,15.3 928.7,15.3 928.7,5.2 	"/>
	<path class="st0" d="M792,74.7c-9.7,0-18.1-7.1-18.1-17.9V5.2h-10.8v51.6c0,17.1,13.3,28.2,28.8,28.2c15.6,0,28.8-11.1,28.8-28.2
		V5.2H810v51.6C810,67.6,801.7,74.7,792,74.7z"/>
	<path class="st0" d="M579.1,64.7c-5.3,6.2-13.1,10-21.9,10c-16.5,0-29.3-13.4-29.3-30c0-16.7,12.8-30.1,29.3-30.1
		c8.7,0,16.3,3.9,21.6,9.7l8-6.6c-7-8.2-17.5-13.4-29.7-13.4c-22.3,0-40,18-40,40.4c0,22.3,17.6,40.3,40,40.3
		c12.2,0,22.9-5.2,29.9-13.6L579.1,64.7z"/>
	<path class="st0" d="M426.6,61.1H416c0,12.3,11.4,23.9,27.6,23.9c15.5,0,25-9.2,26.3-20.5c1.6-12.6-6.3-20.9-21.1-24.6l-10.3-2.5
		c-10-2.4-11.2-7.5-11.2-11c0-7.2,7.1-11.9,14.8-11.9c8.6,0,14.9,5,14.9,12.9h10.6c0-14.2-11-23.1-25.4-23.1
		c-13.4,0-25.5,8.9-25.5,22.1c0,6.8,2.5,16.3,19.2,20.5l10.2,2.5c7.1,1.6,14.1,5.6,13.4,14c-0.9,5.9-5.8,11.5-15.9,11.5
		C433.6,75.1,426.8,68,426.6,61.1z"/>
	<path class="st0" d="M642.2,44.7c0-16.7,12.7-30.1,29.2-30.1c16.6,0,29.3,13.5,29.3,30.1c0,16.7-12.7,30-29.3,30
		C654.9,74.7,642.2,61.4,642.2,44.7 M631.6,44.7C631.6,67,649,85,671.4,85c22.6,0,40.1-18,40.1-40.3c0-22.4-17.5-40.4-40.1-40.4
		C649,4.3,631.6,22.3,631.6,44.7"/>
	<polygon class="st0" points="214.4,4.3 214.4,14.3 238.3,14.3 238.3,82.9 249,82.9 249,14.3 273,14.3 273,4.3 	"/>
	<path class="st0" d="M31.1,4H0v79h31.1c22.4,0,35.5-17.1,35.5-39.3C66.6,21.3,53.5,4,31.1,4z M31.1,73H11V14h20.1
		c16.4,0,24.8,13.1,24.8,29.7S47.4,73,31.1,73z"/>
	<polygon class="st1" points="137.1,0 101.1,82.9 101.1,82.9 112.3,82.9 112.4,82.9 137.1,24.9 161.7,82.9 161.9,82.9 173.1,82.9 
		173.1,82.9 	"/>
	<polygon class="st1" points="338,0 302,82.9 302,82.9 313.2,82.9 313.3,82.9 338,24.9 362.7,82.9 362.8,82.9 374,82.9 374,82.9 	
		"/>
</g>
</svg>
