<?xml version="1.0" standalone="no"?>
<!DOCTYPE svg PUBLIC "-//W3C//DTD SVG 20010904//EN"
 "http://www.w3.org/TR/2001/REC-SVG-20010904/DTD/svg10.dtd">
<svg version="1.0" xmlns="http://www.w3.org/2000/svg"
 width="144.000000pt" height="144.000000pt" viewBox="0 0 144.000000 144.000000"
 preserveAspectRatio="xMidYMid meet">
<metadata>
Created by potrace 1.11, written by Peter Selinger 2001-2013
</metadata>
<g transform="translate(0.000000,144.000000) scale(0.100000,-0.100000)"
fill="#000000" stroke="none">
<path d="M0 720 l0 -720 720 0 720 0 0 720 0 720 -720 0 -720 0 0 -720z m705
230 c92 -217 179 -420 192 -450 l25 -55 99 198 c54 108 101 197 104 197 6 0
127 -60 134 -66 3 -3 -336 -674 -348 -686 -4 -4 -94 197 -201 448 l-193 455
-83 -158 c-46 -87 -91 -175 -100 -195 l-17 -37 -68 35 c-38 19 -69 37 -69 40
0 18 344 684 350 677 4 -4 83 -186 175 -403z"/>
</g>
</svg>
