<?xml version="1.0" encoding="utf-8"?>
<!-- Generator: Adobe Illustrator 21.1.0, SVG Export Plug-In . SVG Version: 6.00 Build 0)  -->
<svg version="1.1" id="Layer_1" xmlns="http://www.w3.org/2000/svg" xmlns:xlink="http://www.w3.org/1999/xlink" x="0px" y="0px"
	 viewBox="0 0 681.6 626.1" style="enable-background:new 0 0 681.6 626.1;" xml:space="preserve">
<style type="text/css">
	.st0{fill:none;stroke:#565656;stroke-width:2;stroke-miterlimit:10;}
	.st1{opacity:0.5;fill:none;stroke:#565656;stroke-miterlimit:10;enable-background:new    ;}
	.st2{opacity:0.2;fill:#818181;enable-background:new    ;}
	.st3{display:none;opacity:0.5;}
	.st4{display:inline;fill:none;stroke:#565656;stroke-miterlimit:10;}
	.st5{opacity:0.5;}
	.st6{fill:none;stroke:#565656;stroke-miterlimit:10;}
	.st7{fill:#FFFFFF;stroke:#565656;stroke-width:2;stroke-miterlimit:10;}
	.st8{display:none;}
</style>
<g id="globe">
	<g>
		<g>
			<g>
				<circle id="SVGID_1_" class="st0" cx="334.9" cy="334" r="227"/>
			</g>
		</g>
		<path class="st1" d="M126.7,334.4c0-122.2,96.6-221.9,217.6-226.8c-3.1-0.1-6.2-0.2-9.4-0.2c-125.3,0-227,101.6-227,227
			s101.6,227,227,227c3.1,0,6.3-0.1,9.4-0.2C223.3,556.3,126.7,456.6,126.7,334.4z"/>
		<path class="st2" d="M334.9,107c-6.6,0-13.1,0.3-19.6,0.8c116.2,9.9,207.4,107.4,207.4,226.1S431.5,550.1,315.3,560
			c6.5,0.6,13,0.8,19.6,0.8c125.3,0,227-101.6,227-227S460.3,107,334.9,107z"/>
	</g>
	<g>
		<g id="lines_1_" class="st3">
			<line class="st4" x1="73" y1="472.8" x2="626.4" y2="231.5"/>
			<line class="st4" x1="33" y1="32.4" x2="264.8" y2="310"/>
			<line class="st4" x1="47" y1="270" x2="446.5" y2="65.4"/>
			<line class="st4" x1="243.3" y1="83.9" x2="73" y2="472.8"/>
			<line class="st4" x1="47" y1="270" x2="264.8" y2="310"/>
			<line class="st4" x1="47" y1="270" x2="73" y2="472.8"/>
			<line class="st4" x1="219.4" y1="605.6" x2="73" y2="472.8"/>
			<line class="st4" x1="164.3" y1="492.8" x2="219.4" y2="605.6"/>
			<line class="st4" x1="73" y1="472.8" x2="164.3" y2="492.8"/>
			<line class="st4" x1="264.8" y1="310" x2="164.3" y2="492.8"/>
			<line class="st4" x1="664.8" y1="390.5" x2="446.5" y2="65.4"/>
			<line class="st4" x1="626.4" y1="65.4" x2="626.4" y2="231.5"/>
			<line class="st4" x1="446.5" y1="65.4" x2="414" y2="596.1"/>
			<line class="st4" x1="47" y1="270" x2="164.3" y2="492.8"/>
			<line class="st4" x1="243.3" y1="83.9" x2="264.8" y2="310"/>
			<line class="st4" x1="414" y1="596.1" x2="264.8" y2="310"/>
			<line class="st4" x1="219.4" y1="605.6" x2="626.4" y2="231.5"/>
			<line class="st4" x1="414" y1="596.1" x2="511.6" y2="491.8"/>
			<line class="st4" x1="664.8" y1="390.5" x2="414" y2="596.1"/>
			<line class="st4" x1="219.4" y1="605.6" x2="414" y2="596.1"/>
			<line class="st4" x1="47" y1="270" x2="414" y2="596.1"/>
			<line class="st4" x1="446.3" y1="68.5" x2="219.4" y2="605.6"/>
			<line class="st4" x1="243.3" y1="83.9" x2="446.5" y2="65.4"/>
			<line class="st4" x1="626.4" y1="65.4" x2="446.5" y2="65.4"/>
			<line class="st4" x1="626.4" y1="231.5" x2="243.3" y2="83.9"/>
			<line class="st4" x1="414" y1="596.1" x2="164.3" y2="492.8"/>
			<line class="st4" x1="626.4" y1="65.4" x2="527.4" y2="401.4"/>
			<line class="st4" x1="526.3" y1="399.3" x2="664.8" y2="390.5"/>
			<line class="st4" x1="219.4" y1="605.6" x2="664.8" y2="390.5"/>
			<line class="st4" x1="264.8" y1="310" x2="626.4" y2="231.5"/>
			<line class="st4" x1="626.4" y1="65.4" x2="264.8" y2="310"/>
			<line class="st4" x1="526.3" y1="399.3" x2="243.3" y2="83.9"/>
		</g>
		<g id="lines" class="st5">
			<line class="st6" x1="33" y1="32.4" x2="264.8" y2="310"/>
			<line class="st6" x1="47" y1="270" x2="446.5" y2="65.4"/>
			<line class="st6" x1="243.3" y1="83.9" x2="73" y2="472.8"/>
			<line class="st6" x1="47" y1="270" x2="264.8" y2="310"/>
			<line class="st6" x1="47" y1="270" x2="73" y2="472.8"/>
			<line class="st6" x1="219.4" y1="605.6" x2="73" y2="472.8"/>
			<line class="st6" x1="164.3" y1="492.8" x2="219.4" y2="605.6"/>
			<line class="st6" x1="73" y1="472.8" x2="164.3" y2="492.8"/>
			<line class="st6" x1="264.8" y1="310" x2="164.3" y2="492.8"/>
			<line class="st6" x1="664.8" y1="390.5" x2="446.5" y2="65.4"/>
			<line class="st6" x1="626.4" y1="65.4" x2="626.4" y2="231.5"/>
			<line class="st6" x1="47" y1="270" x2="164.3" y2="492.8"/>
			<line class="st6" x1="243.3" y1="83.9" x2="264.8" y2="310"/>
			<line class="st6" x1="414" y1="596.1" x2="264.8" y2="310"/>
			<line class="st6" x1="414" y1="596.1" x2="511.6" y2="491.8"/>
			<line class="st6" x1="664.8" y1="390.5" x2="414" y2="596.1"/>
			<line class="st6" x1="219.4" y1="605.6" x2="414" y2="596.1"/>
			<line class="st6" x1="243.3" y1="83.9" x2="446.5" y2="65.4"/>
			<line class="st6" x1="626.4" y1="65.4" x2="446.5" y2="65.4"/>
			<line class="st6" x1="626.4" y1="231.5" x2="243.3" y2="83.9"/>
			<line class="st6" x1="414" y1="596.1" x2="164.3" y2="492.8"/>
			<line class="st6" x1="626.4" y1="65.4" x2="527.4" y2="401.4"/>
			<line class="st6" x1="526.3" y1="399.3" x2="664.8" y2="390.5"/>
			<line class="st6" x1="219.4" y1="605.6" x2="664.8" y2="390.5"/>
			<line class="st6" x1="264.8" y1="310" x2="626.4" y2="231.5"/>
			<line class="st6" x1="626.4" y1="65.4" x2="264.8" y2="310"/>
			<line class="st1" x1="446.3" y1="68.5" x2="414" y2="596.1"/>
			<line class="st1" x1="164.3" y1="492.8" x2="526.3" y2="399.3"/>
		</g>
		<g id="circles">
			<circle class="st7" cx="33" cy="32.4" r="22.5"/>
			<circle class="st7" cx="264.8" cy="310" r="17.5"/>
			<circle class="st7" cx="626.4" cy="65.4" r="17.5"/>
			<circle class="st7" cx="164.3" cy="492.8" r="12.5"/>
			<circle class="st7" cx="219.4" cy="605.6" r="12.5"/>
			<circle class="st7" cx="414" cy="596.1" r="12.5"/>
			<circle class="st7" cx="446.5" cy="65.4" r="12.5"/>
			<circle class="st7" cx="243.3" cy="83.9" r="12.5"/>
			<circle class="st7" cx="626.4" cy="231.5" r="12.5"/>
			<circle class="st7" cx="528.1" cy="399.3" r="12.5"/>
			<circle class="st7" cx="73" cy="472.8" r="7.5"/>
			<circle class="st7" cx="47" cy="270" r="7.5"/>
			<circle class="st7" cx="664.8" cy="390.5" r="7.5"/>
			<circle class="st7" cx="511.6" cy="491.8" r="6.7"/>
		</g>
	</g>
</g>
<g id="Layer_2" class="st8">
</g>
</svg>
