<?xml version="1.0" encoding="utf-8"?>
<!-- Generator: Adobe Illustrator 19.2.1, SVG Export Plug-In . SVG Version: 6.00 Build 0)  -->
<svg version="1.1" id="Layer_1" xmlns="http://www.w3.org/2000/svg" xmlns:xlink="http://www.w3.org/1999/xlink" x="0px" y="0px"
	 viewBox="0 0 1000 339.9" style="enable-background:new 0 0 1000 339.9;" xml:space="preserve">
<style type="text/css">
	.st0{fill-rule:evenodd;clip-rule:evenodd;fill:#515151;}
	.st1{fill-rule:evenodd;clip-rule:evenodd;fill:#00EABC;}
</style>
<g>
	<path class="st0" d="M929,300.9h-17.4c0,20.1,18.7,39,45.1,39c25.3,0,40.8-15.1,43-33.6c2.6-20.5-10.3-34.1-34.4-40.3l-16.8-4.1
		c-16.3-3.9-18.3-12.3-18.3-17.9c0-11.7,11.6-19.4,24.1-19.4c14,0,24.3,8.2,24.3,21.1h17.4c0-23.1-18-37.7-41.5-37.7
		c-21.9,0-41.7,14.5-41.7,36.2c0,11.2,4.1,26.7,31.4,33.6l16.6,4.1c11.6,2.6,23,9.1,21.9,22.9c-1.5,9.7-9.5,18.8-26,18.8
		C940.4,323.6,929.1,312.1,929,300.9z"/>
	<polygon class="st0" points="741.9,209.5 741.9,225.9 781,225.9 781,338 798.6,338 798.6,225.9 837.7,225.9 837.7,209.5 	"/>
	<path class="st0" d="M614.3,323.1c-15.9,0-29.6-11.6-29.6-29.3v-84.3h-17.6v84.3c0,28,21.7,46.1,47.1,46.1
		c25.4,0,47.1-18.1,47.1-46.1v-84.3h-17.6v84.3C643.9,311.5,630.2,323.1,614.3,323.1z"/>
	<path class="st0" d="M266.6,306.7c-8.6,10.1-21.3,16.4-35.7,16.4c-26.9,0-47.9-21.8-47.9-49c0-27.2,21-49.2,47.9-49.2
		c14.2,0,26.6,6.3,35.4,15.9l13.1-10.8c-11.4-13.4-28.6-21.8-48.4-21.8c-36.5,0-65.3,29.5-65.3,66c0,36.4,28.8,65.8,65.3,65.8
		c20,0,37.4-8.6,48.8-22.2L266.6,306.7z"/>
	<path class="st0" d="M17.4,300.9H0c0,20.1,18.7,39,45.1,39c25.3,0,40.8-15.1,43-33.6c2.6-20.5-10.3-34.1-34.4-40.3l-16.8-4.1
		C20.6,258,18.5,249.6,18.5,244c0-11.7,11.6-19.4,24.1-19.4c14,0,24.3,8.2,24.3,21.1h17.4c0-23.1-18-37.7-41.5-37.7
		C21,208,1.1,222.6,1.1,244.2c0,11.2,4.1,26.7,31.4,33.6l16.6,4.1c11.6,2.6,23,9.1,21.9,22.9c-1.5,9.7-9.5,18.8-26,18.8
		C28.8,323.6,17.6,312.1,17.4,300.9z"/>
	<path class="st0" d="M369.6,274c0-27.2,20.8-49.2,47.7-49.2c27.1,0,47.9,22,47.9,49.2c0,27.2-20.8,49-47.9,49
		C390.4,323.1,369.6,301.3,369.6,274 M352.2,274c0,36.4,28.4,65.8,65.1,65.8c36.9,0,65.5-29.5,65.5-65.8c0-36.5-28.6-66-65.5-66
		C380.7,208,352.2,237.5,352.2,274"/>
	<path class="st0" d="M356.8,7v16.4h39.1v112.1h17.6V23.4h39.1V7H356.8z M24.7,119.3v-96h32.5c26.8,0,40.6,21.3,40.6,48.3
		c0,27-13.8,47.7-40.6,47.7H24.7z M57.3,135.5c36.7,0,58-27.6,58-64C115.3,35,94,7,57.3,7H7.3v128.5H57.3z"/>
	<polygon class="st1" points="230.5,0 171.7,135.5 171.7,135.5 190,135.5 190.2,135.5 230.5,40.6 270.8,135.5 271,135.5 
		289.3,135.5 289.3,135.5 	"/>
	<polygon class="st1" points="558.8,0 500,135.5 500,135.5 518.3,135.5 518.5,135.5 558.8,40.6 599.1,135.5 599.3,135.5 
		617.6,135.5 617.7,135.5 	"/>
</g>
</svg>
